<?xml version="1.0" encoding="iso-8859-1"?>
<!-- Generator: Adobe Illustrator 19.0.0, SVG Export Plug-In . SVG Version: 6.00 Build 0)  -->
<svg version="1.1" id="Layer_1" xmlns="http://www.w3.org/2000/svg" xmlns:xlink="http://www.w3.org/1999/xlink" x="0px" y="0px"
	 viewBox="0 0 512 512" style="enable-background:new 0 0 512 512;" xml:space="preserve">
<rect x="233.977" y="306.791" style="fill:#CFDCE5;" width="44.046" height="70.605"/>
<path style="fill:#E25749;" d="M242.443,478.96V377.399H222.96V478.96c0,18.247,14.793,33.04,33.04,33.04l0,0
	c3.391,0,6.662-0.513,9.741-1.461C252.249,506.381,242.443,493.817,242.443,478.96z"/>
<g>
	<polyline style="fill:#BAC6CC;" points="254.835,306.794 254.835,377.399 233.977,377.399 233.977,306.794 	"/>
	<path style="fill:#BAC6CC;" d="M278.027,300.946v28.066c-7.201,1.029-14.542,1.566-22.023,1.566
		c-7.481,0-14.822-0.538-22.023-1.566v-28.066H278.027z"/>
</g>
<circle style="fill:#FCD577;" cx="256" cy="154.184" r="154.184"/>
<circle style="fill:#CFDCE5;" cx="256" cy="154.184" r="117.012"/>
<path style="fill:#DCE8EF;" d="M197.434,154.183c0-41.632,11.492-80.577,31.461-113.851
	c-51.554,12.228-89.909,58.557-89.909,113.851s38.354,101.624,89.909,113.851C208.925,234.759,197.434,195.815,197.434,154.183z"/>
<path style="fill:#EAC36E;" d="M256,278.21c-68.389,0-124.028-55.638-124.028-124.027S187.611,30.155,256,30.155
	s124.028,55.638,124.028,124.027S324.389,278.21,256,278.21z M256,44.183c-60.654,0-110.001,49.346-110.001,109.999
	S195.346,264.183,256,264.183S366,214.837,366,154.183S316.654,44.183,256,44.183z"/>
<path style="fill:#FF6F52;" d="M256,512L256,512c-18.247,0-33.04-14.793-33.04-33.04V378.075c0-6.829,5.536-12.365,12.365-12.365
	h41.349c6.829,0,12.365,5.536,12.365,12.365V478.96C289.04,497.207,274.247,512,256,512z"/>
<path style="fill:#E25749;" d="M241.663,478.96V378.075c0-6.829,5.536-12.365,12.365-12.365h-18.703
	c-6.829,0-12.365,5.536-12.365,12.365V478.96c0,18.247,14.793,33.04,33.04,33.04l0,0c3.25,0,6.386-0.477,9.352-1.351
	C251.66,506.615,241.663,493.958,241.663,478.96z"/>
<path style="fill:#415E72;" d="M327.867,150.316L256,78.449l-71.867,71.867l12.398,12.399l8.65-8.65v72.22h101.635v-72.22l8.65,8.65
	L327.867,150.316z M289.284,208.75h-66.567v-72.22L256,103.246l33.283,33.284L289.284,208.75L289.284,208.75z"/>
<g>
</g>
<g>
</g>
<g>
</g>
<g>
</g>
<g>
</g>
<g>
</g>
<g>
</g>
<g>
</g>
<g>
</g>
<g>
</g>
<g>
</g>
<g>
</g>
<g>
</g>
<g>
</g>
<g>
</g>
</svg>
