<?xml version="1.0" encoding="iso-8859-1"?>
<!-- Generator: Adobe Illustrator 19.0.0, SVG Export Plug-In . SVG Version: 6.00 Build 0)  -->
<svg version="1.1" id="Layer_1" xmlns="http://www.w3.org/2000/svg" xmlns:xlink="http://www.w3.org/1999/xlink" x="0px" y="0px"
	 viewBox="0 0 512 512" style="enable-background:new 0 0 512 512;" xml:space="preserve">
<path style="fill:#D9576D;" d="M462.657,93.139H40.895c-17.667,0-31.989,14.323-31.989,31.989v343.504
	c0,17.668,14.323,31.989,31.989,31.989h421.761c17.668,0,31.989-14.323,31.989-31.989V125.128
	C494.646,107.461,480.324,93.139,462.657,93.139z"/>
<path style="fill:#CCF7FF;" d="M251.776,427.836c-4.92,0-8.906-3.988-8.906-8.906s3.986-8.906,8.906-8.906
	c49.744,0,96.573-16.44,135.43-47.541c37.727-30.198,64.633-72.518,75.761-119.162c1.141-4.785,5.945-7.739,10.729-6.597
	c4.784,1.142,7.739,5.946,6.597,10.73c-12.044,50.481-41.148,96.271-81.956,128.935C356.89,409.564,304.839,427.836,251.776,427.836
	z"/>
<path style="opacity:0.3;fill:#333333;enable-background:new    ;" d="M124.627,417.824c0,30.302,24.653,54.954,54.953,54.954
	h144.392c30.303,0,54.954-24.653,54.954-54.954V276.189h-254.3V417.824z"/>
<path style="fill:#FF99AA;" d="M148.376,299.939v117.884c0,17.233,13.971,31.204,31.204,31.204h144.392
	c17.233,0,31.204-13.971,31.204-31.204V299.939H148.376z"/>
<path style="opacity:0.3;fill:#333333;enable-background:new    ;" d="M46.474,192.932c0,113.204,92.099,205.302,205.302,205.302
	s205.302-92.097,205.302-205.302c0-36.199-9.43-70.232-25.942-99.792H72.418C55.904,122.701,46.474,156.734,46.474,192.932z"/>
<circle style="fill:#85A1A6;" cx="251.776" cy="192.936" r="181.547"/>
<path style="fill:#71888C;" d="M251.776,374.484c100.269,0,181.551-81.283,181.551-181.551H70.225
	C70.225,293.2,151.509,374.484,251.776,374.484z"/>
<g>
	<path style="fill:#FFFFFF;" d="M393.345,178.801c-4.29,0-8.07-3.107-8.782-7.479c-1.329-8.177-3.419-16.255-6.211-24.007
		c-9.088-25.231-26.189-47.835-48.154-63.651c-3.991-2.874-4.897-8.44-2.022-12.432c2.874-3.992,8.441-4.896,12.432-2.024
		c24.852,17.895,44.209,43.489,54.502,72.069c3.164,8.783,5.53,17.929,7.035,27.187c0.79,4.855-2.506,9.43-7.361,10.22
		C394.3,178.763,393.819,178.801,393.345,178.801z"/>
	<path style="fill:#FFFFFF;" d="M304.547,68.442c-1.094,0-2.205-0.203-3.285-0.631c-15.746-6.252-32.396-9.424-49.488-9.426
		c-4.92-0.001-8.906-3.989-8.905-8.908c0.001-4.919,3.988-8.905,8.906-8.905h0.001c19.352,0.004,38.213,3.598,56.059,10.684
		c4.572,1.815,6.806,6.993,4.991,11.564C311.44,66.313,308.09,68.442,304.547,68.442z"/>
</g>
<circle style="fill:#85A1A6;" cx="471.632" cy="245.388" r="31.464"/>
<circle style="fill:#CCF7FF;" cx="251.776" cy="192.936" r="36.872"/>
<path style="opacity:0.2;fill:#333333;enable-background:new    ;" d="M494.646,223.944v-98.816
	c0-17.668-14.323-31.989-31.989-31.989H403.45c-32.469-49.25-88.27-81.758-151.674-81.758l0,0v489.24h210.882
	c17.667,0,31.989-14.323,31.989-31.989V266.829c5.238-5.619,8.447-13.154,8.447-21.442S499.884,229.565,494.646,223.944z"/>
<g>
	<path style="fill:#26150C;" d="M251.777,238.716c25.245,0,45.784-20.539,45.784-45.784s-20.539-45.784-45.784-45.784
		s-45.784,20.539-45.784,45.784S226.531,238.716,251.777,238.716z M251.777,164.961c15.423,0,27.972,12.547,27.972,27.972
		s-12.547,27.972-27.972,27.972s-27.972-12.547-27.972-27.972S236.353,164.961,251.777,164.961z"/>
	<path style="fill:#26150C;" d="M503.553,220.718v-95.591c0-22.55-18.346-40.895-40.895-40.895h-54.582
		C373.63,34.85,316.417,2.472,251.776,2.472S129.923,34.85,95.476,84.231h-54.58C18.346,84.233,0,102.578,0,125.128v343.504
		c0,22.55,18.346,40.895,40.895,40.895h421.762c22.55,0,40.895-18.346,40.895-40.895V270.055c5.288-6.828,8.447-15.384,8.447-24.668
		S508.841,227.546,503.553,220.718z M462.658,102.045c12.728,0,23.083,10.355,23.083,23.083v82.439c0-0.416-4.809-1.461-5.297-1.57
		c-2.052-0.457-4.141-0.753-6.239-0.886c-4.285-0.272-8.612,0.134-12.766,1.22c-8.212,2.147-15.661,6.941-21.038,13.504
		c-0.024,0.029-0.049,0.055-0.072,0.083c0.045-0.311,0.075-0.627,0.118-0.938c5.505-39.993-1.967-81.466-21.27-116.934h43.482
		V102.045z M448.972,278.776c0.504,0.344,1.015,0.676,1.534,0.996c0.058,0.036,0.114,0.075,0.172,0.11
		c-18.011,41.07-48.259,75.538-86.596,98.777v-31.995c0.283-0.208,0.563-0.42,0.844-0.628
		c21.634-16.029,39.771-36.691,52.986-60.143c5.723-10.157,10.528-20.834,14.276-31.874c0.071,0.323,0.154,0.642,0.233,0.963
		C434.785,264.594,440.806,273.201,448.972,278.776z M85.868,145.177c17.8-61.874,70.814-110.245,134.43-122.013
		c10.376-1.919,20.926-2.876,31.479-2.876c69.302,0,133.425,43.12,159.761,107.206c17.326,42.16,17.079,90.609-0.704,132.575
		c-1.094,2.58-2.248,5.13-3.463,7.645c-4.249,8.804-9.222,17.194-14.844,25.093c-7.227,10.156-15.526,19.5-24.729,27.866
		c-1.022,0.93-2.056,1.847-3.101,2.753c-54.019,46.82-135.599,54.644-197.848,19.736c-62.666-35.143-97.289-110.196-84.955-180.75
		c0.436-2.491,0.927-4.973,1.477-7.443C84.107,151.67,84.939,148.406,85.868,145.177z M346.27,358.323v59.5
		c0,12.295-10.002,22.297-22.298,22.297H179.58c-12.295,0-22.298-10.002-22.298-22.297v-59.5c0,1.526,12.405,6.522,14.055,7.292
		c5.325,2.484,10.766,4.719,16.299,6.696c10.327,3.688,20.975,6.47,31.784,8.32C262.741,388.042,308.12,380.191,346.27,358.323z
		 M485.741,468.632c0,12.729-10.355,23.083-23.083,23.083H40.895c-12.728,0-23.083-10.355-23.083-23.083V125.128
		c0-12.728,10.355-23.083,23.083-23.083h43.482c-2.671,0-9.913,21.211-10.956,23.995c-2.984,7.968-5.434,16.138-7.321,24.435
		c-16.223,71.323,10.704,147.063,68.161,192.239c1.199,0.943,2.411,1.873,3.634,2.787c0.52,0.39,1.051,0.766,1.575,1.15v71.171
		c0,22.116,17.993,40.109,40.111,40.109h144.392c22.117,0,40.111-17.993,40.111-40.109v-18.614
		c46.316-25.3,82.742-65.31,103.547-113.652c0.04,0.004,0.081,0.006,0.121,0.009c6.073,0.572,12.273-0.221,17.988-2.36v185.426
		H485.741z M487.745,260.993c-4.127,4.257-9.867,6.951-16.116,6.951c-2.902,0-5.669-0.57-8.22-1.573
		c-0.232-0.091-0.468-0.173-0.696-0.272c-8.016-3.464-13.642-11.44-13.642-20.713c0-12.439,10.119-22.558,22.558-22.558
		c4.573,0,8.827,1.376,12.385,3.725c0.089,0.059,0.182,0.112,0.271,0.172c0.427,0.291,0.836,0.61,1.241,0.929
		c0.2,0.158,0.404,0.309,0.599,0.473c0.321,0.27,0.625,0.558,0.93,0.844c0.257,0.242,0.515,0.483,0.762,0.74
		c3.934,4.062,6.37,9.586,6.37,15.674C494.187,251.364,491.713,256.901,487.745,260.993z"/>
</g>
<g>
</g>
<g>
</g>
<g>
</g>
<g>
</g>
<g>
</g>
<g>
</g>
<g>
</g>
<g>
</g>
<g>
</g>
<g>
</g>
<g>
</g>
<g>
</g>
<g>
</g>
<g>
</g>
<g>
</g>
</svg>
