<?xml version="1.0" encoding="iso-8859-1"?>
<!-- Generator: Adobe Illustrator 19.0.0, SVG Export Plug-In . SVG Version: 6.00 Build 0)  -->
<svg version="1.1" id="Layer_1" xmlns="http://www.w3.org/2000/svg" xmlns:xlink="http://www.w3.org/1999/xlink" x="0px" y="0px"
	 viewBox="0 0 512 512" style="enable-background:new 0 0 512 512;" xml:space="preserve">
<path d="M512,99.04V73.6c0-15.84-12.96-28.8-28.8-28.8H115.04H28.8C12.96,44.8,0,57.76,0,73.6v25.44H512z"/>
<g>
	<path style="opacity:0.25;fill:#FFFFFF;enable-background:new    ;" d="M147.04,44.8h-32H28.8C12.96,44.8,0,57.76,0,73.6v25.44
		h115.84L147.04,44.8z"/>
	<rect x="8" y="107.2" style="fill:#FFFFFF;" width="496" height="352"/>
</g>
<path style="fill:#EFEFEF;" d="M496,115.2v336H16v-336L496,115.2 M512,99.2H0v368h512V99.2L512,99.2z"/>
<path style="fill:#E0E0E0;" d="M488,123.2v320H24v-320L488,123.2 M492,119.2H20v328h472V119.2L492,119.2z"/>
<circle style="fill:#FF0000;" cx="40.48" cy="72" r="8.16"/>
<circle style="fill:#22ACDD;" cx="65.12" cy="72" r="8.16"/>
<g>
	<circle style="fill:#FFFFFF;" cx="89.6" cy="72" r="8.16"/>
	<path style="fill:#FFFFFF;" d="M428.32,86.4H170.88c-7.84,0-14.4-6.4-14.4-14.4l0,0c0-7.84,6.4-14.4,14.4-14.4h257.44
		c7.84,0,14.4,6.4,14.4,14.4l0,0C442.56,79.84,436.16,86.4,428.32,86.4z"/>
</g>
<path d="M180.64,65.44l1.92,7.52c0.48,1.6,0.8,3.2,1.12,4.8h0.16c0.32-1.44,0.8-3.04,1.28-4.64l2.4-7.52h2.24l2.24,7.52
	c0.48,1.76,0.96,3.36,1.28,4.8h0.16c0.32-1.44,0.64-3.04,1.12-4.8l2.08-7.52h2.72l-4.8,14.88h-2.4l-2.24-7.04
	c-0.48-1.6-0.96-3.2-1.28-4.96l0,0c-0.32,1.76-0.8,3.36-1.28,4.96l-2.4,7.04h-2.4l-4.48-14.88h2.56V65.44z"/>
<path d="M203.52,65.44l1.92,7.52c0.48,1.6,0.8,3.2,1.12,4.8h0.16c0.32-1.44,0.8-3.04,1.28-4.64l2.4-7.52h2.24l2.24,7.52
	c0.48,1.76,0.96,3.36,1.28,4.8h0.16c0.32-1.44,0.64-3.04,1.12-4.8l2.08-7.52h2.72l-4.8,14.88h-2.4l-2.24-7.36
	c-0.48-1.6-0.96-3.2-1.28-4.96l0,0c-0.32,1.76-0.8,3.36-1.28,4.96l-2.4,7.04h-2.4l-4.48-14.88h2.56V65.44z"/>
<path d="M226.56,65.44l1.92,7.52c0.48,1.6,0.8,3.2,1.12,4.8h0.16c0.32-1.44,0.8-3.04,1.28-4.64l2.4-7.52h2.24l2.24,7.52
	c0.48,1.76,0.96,3.36,1.28,4.8h0.16c0.32-1.44,0.64-3.04,1.12-4.8l2.08-7.52h2.72l-4.8,14.88h-2.4l-2.24-7.04
	c-0.48-1.6-0.96-3.2-1.28-4.96l0,0c-0.32,1.76-0.8,3.36-1.28,4.96l-2.4,7.04h-2.4L224,65.6h2.56V65.44z"/>
<path d="M246.24,78.72c0-1.12,0.8-1.92,1.92-1.92s1.76,0.8,1.76,1.92c0,1.12-0.64,1.92-1.92,1.92
	C246.88,80.64,246.24,79.84,246.24,78.72z"/>
<g>
	<rect x="461.28" y="70.4" style="fill:#FFFFFF;" width="23.04" height="4"/>
	<polygon style="fill:#FFFFFF;" points="474.56,84.32 471.68,81.44 480.8,72.32 471.68,63.2 474.56,60.48 486.56,72.32 	"/>
</g>
<polygon style="fill:#C9C9C9;" points="429.76,67.36 422.24,77.28 414.56,67.36 "/>
<path style="fill:#F33052;" d="M354.88,262.24h-4.64c-4.64-19.52-22.08-34.08-43.04-34.08c-5.12,0-9.92,0.96-14.56,2.56
	c-10.24-29.28-38.08-50.24-70.72-50.24c-41.44,0-75.04,33.6-75.04,75.04c0,2.56,0.16,5.12,0.32,7.68
	c-27.2,4.64-48.16,28.48-48.16,57.12c0,31.84,26.08,57.92,57.92,57.92h197.76c31.84,0,57.92-26.08,57.92-57.92
	C412.8,288.32,386.72,262.24,354.88,262.24z"/>
<g>
	<path style="fill:#FFFFFF;" d="M148.48,292.8l6.88,26.24c1.44,5.76,2.88,11.04,3.84,16.32h0.32c1.12-5.28,2.88-10.72,4.64-16.32
		l8.48-26.24h7.84l8,25.76c1.92,6.24,3.36,11.68,4.64,16.8h0.32c0.8-5.28,2.24-10.72,4-16.64l7.36-25.92h9.28l-16.64,51.52h-8.48
		l-7.84-24.64c-1.76-5.76-3.36-10.88-4.64-16.96H176c-1.28,6.24-2.88,11.52-4.64,16.96l-8.32,24.48h-8.64l-15.52-51.36H148.48z"/>
	<path style="fill:#FFFFFF;" d="M228.16,292.8l6.88,26.24c1.44,5.76,2.88,11.04,3.84,16.32h0.32c1.12-5.28,2.88-10.72,4.64-16.32
		l8.48-26.24h7.84l8,25.76c1.92,6.24,3.36,11.68,4.64,16.8h0.32c0.8-5.28,2.24-10.72,4-16.64l7.36-25.92h9.28l-16.64,51.52h-8.48
		l-7.84-24.64c-1.76-5.76-3.36-10.88-4.64-16.96H256c-1.28,6.24-2.88,11.52-4.64,16.96l-8.32,24.48h-8.48l-15.52-51.52h9.12V292.8z"
		/>
	<path style="fill:#FFFFFF;" d="M307.84,292.8l6.88,26.24c1.44,5.76,2.88,11.04,3.84,16.32h0.32c1.12-5.28,2.88-10.72,4.64-16.32
		L332,292.8h7.84l8,25.76c1.92,6.24,3.36,11.68,4.64,16.8h0.32c0.8-5.28,2.24-10.72,4-16.64l7.36-25.92h9.28l-16.64,51.52h-8.48
		l-7.84-24.64c-1.76-5.76-3.36-10.88-4.64-16.96h-0.16c-1.28,6.24-2.88,11.52-4.64,16.96l-8.32,24.48h-8.48l-15.52-51.52h9.12V292.8
		z"/>
</g>
<g>
</g>
<g>
</g>
<g>
</g>
<g>
</g>
<g>
</g>
<g>
</g>
<g>
</g>
<g>
</g>
<g>
</g>
<g>
</g>
<g>
</g>
<g>
</g>
<g>
</g>
<g>
</g>
<g>
</g>
</svg>
